<?xml version="1.0" encoding="UTF-8" standalone="no"?>
<!-- Created with Inkscape (http://www.inkscape.org/) -->

<svg
   width="34mm"
   height="34mm"
   viewBox="0 0 34 34"
   version="1.1"
   id="svg1"
   xmlns:xlink="http://www.w3.org/1999/xlink"
   xmlns="http://www.w3.org/2000/svg"
   xmlns:svg="http://www.w3.org/2000/svg">
  <defs
     id="defs1">
    <linearGradient
       id="linearGradient6">
      <stop
         style="stop-color:#d3c4f1;stop-opacity:0.33575076;"
         offset="0"
         id="stop5" />
      <stop
         style="stop-color:#6fadf9;stop-opacity:0.38427037;"
         offset="0.75478047"
         id="stop6" />
    </linearGradient>
    <linearGradient
       id="linearGradient3">
      <stop
         style="stop-color:#1f3d73;stop-opacity:1;"
         offset="0"
         id="stop3" />
      <stop
         style="stop-color:#20a4ff;stop-opacity:0.4497743;"
         offset="1"
         id="stop4" />
    </linearGradient>
    <linearGradient
       xlink:href="#linearGradient3"
       id="linearGradient4"
       x1="103.84505"
       y1="49.586697"
       x2="103.84505"
       y2="16.097975"
       gradientUnits="userSpaceOnUse"
       gradientTransform="matrix(0.90725647,0,0,0.58224598,9.7492783,20.952024)" />
    <linearGradient
       xlink:href="#linearGradient6"
       id="linearGradient5"
       gradientUnits="userSpaceOnUse"
       x1="103.84505"
       y1="49.586697"
       x2="103.84505"
       y2="16.097975"
       gradientTransform="matrix(0.82279428,0,0,0.82279428,18.483109,6.8714597)" />
    <filter
       style="color-interpolation-filters:sRGB"
       id="filter29"
       x="-0.068315439"
       y="-0.061048673"
       width="1.1366309"
       height="1.1220973">
      <feGaussianBlur
         stdDeviation="0.58041544"
         id="feGaussianBlur29" />
    </filter>
  </defs>
  <g
     id="layer1"
     transform="translate(-86.564369,-18.182066)">
    <rect
       style="opacity:1;fill:url(#linearGradient4);stroke:none;stroke-width:0.192603;stroke-linecap:round;stroke-linejoin:round;stroke-dashoffset:21.3543;paint-order:markers fill stroke"
       id="rect3"
       width="33.681782"
       height="21.615808"
       x="86.72348"
       y="29.623238"
       ry="5.2453589" />
    <rect
       style="opacity:1;fill:url(#linearGradient5);stroke:none;stroke-width:0.218039;stroke-linecap:round;stroke-linejoin:round;stroke-dashoffset:21.3543;paint-order:markers fill stroke"
       id="rect4"
       width="30.546135"
       height="30.546135"
       x="88.291306"
       y="19.125086"
       ry="4.6235919" />
    <g
       id="g29"
       style="font-size:8.83042px;line-height:0.92;letter-spacing:-0.185208px;word-spacing:0px;mix-blend-mode:normal;fill:#142e96;fill-opacity:0.544278;stroke-width:0.220761;filter:url(#filter29)"
       aria-label="a b i&#10;c r u&#10;n c h"
       transform="matrix(1.111278,0,0,1.111278,-11.347627,-2.423486)">
      <path
         style="font-family:Inconsolata;-inkscape-font-specification:Inconsolata;fill:#142e96;fill-opacity:0.544278"
         d="m 94.640646,28.03542 q -0.688773,0 -1.05965,-0.309064 -0.370878,-0.317895 -0.370878,-0.803568 0,-0.432691 0.273743,-0.741756 0.273743,-0.317895 0.732925,-0.485673 0.468012,-0.176608 1.024329,-0.176608 0.203099,0 0.42386,0.0088 0.229591,0.0088 0.485673,0.04415 -0.05298,-0.706433 -0.370878,-0.971346 -0.309064,-0.264912 -0.891872,-0.264912 -0.291404,0 -0.573977,0.114795 -0.282574,0.105965 -0.512165,0.335556 l -0.309064,-0.406199 q 0.282573,-0.282574 0.653451,-0.42386 0.370877,-0.141287 0.785907,-0.141287 0.538656,0 0.936025,0.176608 0.397368,0.176609 0.618129,0.609299 0.22076,0.432691 0.22076,1.192107 v 2.145792 h -0.688772 v -0.61813 q -0.150117,0.291404 -0.388539,0.450352 -0.229591,0.150117 -0.494503,0.2031 -0.256082,0.06181 -0.494504,0.06181 z m -0.794738,-1.147954 q 0,0.379708 0.247252,0.520995 0.247252,0.141286 0.609299,0.141286 0.653451,0 1.033159,-0.379708 0.379708,-0.388538 0.41503,-1.112633 -0.459182,-0.06181 -0.856551,-0.06181 -0.63579,0 -1.041989,0.21193 -0.4062,0.21193 -0.4062,0.679942 z m 9.740382,1.147954 q -0.37088,0 -0.67994,-0.167778 -0.30907,-0.167777 -0.51217,-0.459181 l -0.22076,0.529825 h -0.4062 v -5.872229 h 0.7241 v 0.06181 q -0.053,0.05298 -0.0707,0.114795 -0.009,0.06181 -0.009,0.21193 v 2.066318 q 0.19427,-0.326725 0.521,-0.520994 0.33555,-0.19427 0.67994,-0.19427 0.73293,0 1.19211,0.520995 0.46801,0.512165 0.46801,1.554154 0,0.724094 -0.24725,1.200937 -0.24725,0.476843 -0.63579,0.715264 -0.37971,0.238421 -0.80357,0.238421 z m -0.0795,-0.565146 q 0.28257,0 0.53865,-0.141287 0.25608,-0.150117 0.41503,-0.494504 0.15895,-0.344386 0.15895,-0.918363 0,-0.803568 -0.30907,-1.183276 -0.30023,-0.379709 -0.7859,-0.379709 -0.48568,0 -0.80357,0.441521 -0.30907,0.432691 -0.30907,1.139125 0,0.697603 0.24726,1.121463 0.25608,0.41503 0.84772,0.41503 z m 7.07359,0.468012 v -0.512165 h 1.03316 v -3.011173 h -0.98018 v -0.512164 h 1.61597 v 3.523337 h 0.94485 v 0.512165 z m 1.31573,-4.883222 q -0.18544,0 -0.31789,-0.132456 -0.13246,-0.132457 -0.13246,-0.317896 0,-0.194269 0.12363,-0.326725 0.13245,-0.132456 0.32672,-0.132456 0.18544,0 0.3179,0.141286 0.14128,0.132457 0.14128,0.317895 0,0.185439 -0.14128,0.317896 -0.13246,0.132456 -0.3179,0.132456 z"
         id="path27" />
      <path
         style="font-family:Inconsolata;-inkscape-font-specification:Inconsolata;fill:#142e96;fill-opacity:0.544278"
         d="m 95.294097,36.45964 q -0.582807,0 -1.041989,-0.273743 -0.459182,-0.273743 -0.724095,-0.750585 -0.256082,-0.476843 -0.256082,-1.086142 0,-0.609299 0.256082,-1.077311 0.264913,-0.476843 0.715264,-0.750586 0.459182,-0.273743 1.04199,-0.273743 0.494503,0 0.883042,0.2031 0.397369,0.194269 0.64462,0.547486 l -0.397368,0.388538 -0.06181,0.06181 -0.04415,-0.04415 q 0,-0.07064 -0.03532,-0.132456 -0.02649,-0.06181 -0.132456,-0.167778 -0.19427,-0.176609 -0.41503,-0.247252 -0.220761,-0.07064 -0.512165,-0.07064 -0.335555,0 -0.63579,0.185439 -0.291404,0.185438 -0.476842,0.529825 -0.176609,0.335556 -0.176609,0.803568 0,0.450351 0.176609,0.812398 0.185438,0.353217 0.503334,0.565147 0.317895,0.2031 0.724094,0.2031 0.609299,0 1.05082,-0.494504 l 0.370877,0.432691 q -0.591638,0.63579 -1.457019,0.63579 z m 6.994123,-4.132636 h 0.66228 l -0.0177,0.741755 q 0.16778,-0.406199 0.52099,-0.618129 0.35322,-0.220761 0.75942,-0.220761 0.64462,0 1.06848,0.441521 l -0.28257,0.494504 -0.0353,0.07947 -0.0618,-0.03532 q -0.0177,-0.07064 -0.053,-0.132456 -0.0353,-0.06181 -0.15012,-0.150118 -0.14128,-0.0883 -0.26491,-0.114795 -0.1148,-0.03532 -0.26491,-0.03532 -0.29141,0 -0.58281,0.150117 -0.28257,0.150118 -0.46801,0.468013 -0.18544,0.317895 -0.18544,0.830059 v 2.145792 h -0.64462 z m 9.36067,4.132636 q -0.60047,0 -0.99784,-0.450351 -0.39736,-0.450352 -0.38853,-1.430528 l 0.009,-2.251757 h 0.61813 v 2.251757 q 0,0.768246 0.26491,1.068481 0.27374,0.300234 0.65345,0.300234 0.28257,0 0.52982,-0.150117 0.24726,-0.150117 0.39737,-0.459182 0.15895,-0.309065 0.15895,-0.785907 v -2.225266 h 0.61813 v 3.408542 q 0,0.158947 0.009,0.317895 0.0177,0.150117 0.0795,0.309065 h -0.60929 q -0.0618,-0.150117 -0.0795,-0.309065 -0.009,-0.158948 -0.009,-0.309065 -0.19427,0.335556 -0.52982,0.529825 -0.32673,0.185439 -0.7241,0.185439 z"
         id="path28" />
      <path
         style="font-family:Inconsolata;-inkscape-font-specification:Inconsolata;fill:#142e96;fill-opacity:0.544278"
         d="m 93.413218,44.786725 v -4.035501 h 0.618129 v 0.715264 q 0.229591,-0.370878 0.591638,-0.591638 0.370878,-0.220761 0.777077,-0.220761 0.494504,0 0.83889,0.388539 0.344386,0.379708 0.344386,1.298071 v 2.446026 H 95.965209 V 42.35836 q 0,-0.63579 -0.22076,-0.891872 -0.21193,-0.256082 -0.520995,-0.256082 -0.264913,0 -0.547486,0.158947 -0.273743,0.150117 -0.459182,0.432691 -0.185439,0.273743 -0.185439,0.662281 v 2.3224 z m 10.340852,0.09714 q -0.58281,0 -1.04199,-0.273743 -0.45918,-0.273743 -0.7241,-0.750586 -0.25608,-0.476842 -0.25608,-1.086141 0,-0.609299 0.25608,-1.077311 0.26492,-0.476843 0.71527,-0.750586 0.45918,-0.273743 1.04199,-0.273743 0.4945,0 0.88304,0.2031 0.39737,0.194269 0.64462,0.547486 l -0.39737,0.388538 -0.0618,0.06181 -0.0442,-0.04415 q 0,-0.07064 -0.0353,-0.132456 -0.0265,-0.06181 -0.13245,-0.167778 -0.19427,-0.176609 -0.41503,-0.247252 -0.22076,-0.07064 -0.51217,-0.07064 -0.33555,0 -0.63579,0.185438 -0.2914,0.185439 -0.47684,0.529826 -0.17661,0.335555 -0.17661,0.803568 0,0.450351 0.17661,0.812398 0.18544,0.353217 0.50333,0.565147 0.3179,0.2031 0.7241,0.2031 0.6093,0 1.05082,-0.494504 l 0.37088,0.432691 q -0.59164,0.63579 -1.45702,0.63579 z m 6.58792,-5.969364 h 0.6976 v 0.06181 q -0.053,0.05298 -0.0706,0.114796 -0.009,0.06181 -0.009,0.21193 v 2.163453 q 0.23842,-0.370878 0.59164,-0.591638 0.36204,-0.220761 0.73292,-0.220761 0.54749,0 0.88304,0.388539 0.34439,0.379708 0.34439,1.298071 v 2.446026 h -0.61813 V 42.35836 q 0,-0.63579 -0.22076,-0.891872 -0.21193,-0.256082 -0.52099,-0.256082 -0.26492,0 -0.54749,0.150117 -0.27374,0.150117 -0.45918,0.43269 -0.18544,0.273743 -0.18544,0.671112 v 2.3224 h -0.61813 z"
         id="path29" />
    </g>
    <g
       id="text1"
       style="font-size:8.83042px;line-height:0.92;letter-spacing:-0.185208px;word-spacing:0px;fill:#343493;fill-opacity:0.688902;stroke-width:0.220761"
       aria-label="a b i&#10;c r u&#10;n c h"
       transform="matrix(1.0819919,0,0,1.0819919,-8.3192836,-1.9723012)">
      <path
         style="font-family:Inconsolata;-inkscape-font-specification:Inconsolata;fill:#343493;fill-opacity:0.688902"
         d="m 94.640646,28.03542 q -0.688773,0 -1.05965,-0.309064 -0.370878,-0.317895 -0.370878,-0.803568 0,-0.432691 0.273743,-0.741756 0.273743,-0.317895 0.732925,-0.485673 0.468012,-0.176608 1.024329,-0.176608 0.203099,0 0.42386,0.0088 0.229591,0.0088 0.485673,0.04415 -0.05298,-0.706433 -0.370878,-0.971346 -0.309064,-0.264912 -0.891872,-0.264912 -0.291404,0 -0.573977,0.114795 -0.282574,0.105965 -0.512165,0.335556 l -0.309064,-0.406199 q 0.282573,-0.282574 0.653451,-0.42386 0.370877,-0.141287 0.785907,-0.141287 0.538656,0 0.936025,0.176608 0.397368,0.176609 0.618129,0.609299 0.22076,0.432691 0.22076,1.192107 v 2.145792 h -0.688772 v -0.61813 q -0.150117,0.291404 -0.388539,0.450352 -0.229591,0.150117 -0.494503,0.2031 -0.256082,0.06181 -0.494504,0.06181 z m -0.794738,-1.147954 q 0,0.379708 0.247252,0.520995 0.247252,0.141286 0.609299,0.141286 0.653451,0 1.033159,-0.379708 0.379708,-0.388538 0.41503,-1.112633 -0.459182,-0.06181 -0.856551,-0.06181 -0.63579,0 -1.041989,0.21193 -0.4062,0.21193 -0.4062,0.679942 z m 9.740382,1.147954 q -0.37088,0 -0.67994,-0.167778 -0.30907,-0.167777 -0.51217,-0.459181 l -0.22076,0.529825 h -0.4062 v -5.872229 h 0.7241 v 0.06181 q -0.053,0.05298 -0.0707,0.114795 -0.009,0.06181 -0.009,0.21193 v 2.066318 q 0.19427,-0.326725 0.521,-0.520994 0.33555,-0.19427 0.67994,-0.19427 0.73293,0 1.19211,0.520995 0.46801,0.512165 0.46801,1.554154 0,0.724094 -0.24725,1.200937 -0.24725,0.476843 -0.63579,0.715264 -0.37971,0.238421 -0.80357,0.238421 z m -0.0795,-0.565146 q 0.28257,0 0.53865,-0.141287 0.25608,-0.150117 0.41503,-0.494504 0.15895,-0.344386 0.15895,-0.918363 0,-0.803568 -0.30907,-1.183276 -0.30023,-0.379709 -0.7859,-0.379709 -0.48568,0 -0.80357,0.441521 -0.30907,0.432691 -0.30907,1.139125 0,0.697603 0.24726,1.121463 0.25608,0.41503 0.84772,0.41503 z m 7.07359,0.468012 v -0.512165 h 1.03316 v -3.011173 h -0.98018 v -0.512164 h 1.61597 v 3.523337 h 0.94485 v 0.512165 z m 1.31573,-4.883222 q -0.18544,0 -0.31789,-0.132456 -0.13246,-0.132457 -0.13246,-0.317896 0,-0.194269 0.12363,-0.326725 0.13245,-0.132456 0.32672,-0.132456 0.18544,0 0.3179,0.141286 0.14128,0.132457 0.14128,0.317895 0,0.185439 -0.14128,0.317896 -0.13246,0.132456 -0.3179,0.132456 z"
         id="path19" />
      <path
         style="font-family:Inconsolata;-inkscape-font-specification:Inconsolata;fill:#343493;fill-opacity:0.688902"
         d="m 95.294097,36.45964 q -0.582807,0 -1.041989,-0.273743 -0.459182,-0.273743 -0.724095,-0.750585 -0.256082,-0.476843 -0.256082,-1.086142 0,-0.609299 0.256082,-1.077311 0.264913,-0.476843 0.715264,-0.750586 0.459182,-0.273743 1.04199,-0.273743 0.494503,0 0.883042,0.2031 0.397369,0.194269 0.64462,0.547486 l -0.397368,0.388538 -0.06181,0.06181 -0.04415,-0.04415 q 0,-0.07064 -0.03532,-0.132456 -0.02649,-0.06181 -0.132456,-0.167778 -0.19427,-0.176609 -0.41503,-0.247252 -0.220761,-0.07064 -0.512165,-0.07064 -0.335555,0 -0.63579,0.185439 -0.291404,0.185438 -0.476842,0.529825 -0.176609,0.335556 -0.176609,0.803568 0,0.450351 0.176609,0.812398 0.185438,0.353217 0.503334,0.565147 0.317895,0.2031 0.724094,0.2031 0.609299,0 1.05082,-0.494504 l 0.370877,0.432691 q -0.591638,0.63579 -1.457019,0.63579 z m 6.994123,-4.132636 h 0.66228 l -0.0177,0.741755 q 0.16778,-0.406199 0.52099,-0.618129 0.35322,-0.220761 0.75942,-0.220761 0.64462,0 1.06848,0.441521 l -0.28257,0.494504 -0.0353,0.07947 -0.0618,-0.03532 q -0.0177,-0.07064 -0.053,-0.132456 -0.0353,-0.06181 -0.15012,-0.150118 -0.14128,-0.0883 -0.26491,-0.114795 -0.1148,-0.03532 -0.26491,-0.03532 -0.29141,0 -0.58281,0.150117 -0.28257,0.150118 -0.46801,0.468013 -0.18544,0.317895 -0.18544,0.830059 v 2.145792 h -0.64462 z m 9.36067,4.132636 q -0.60047,0 -0.99784,-0.450351 -0.39736,-0.450352 -0.38853,-1.430528 l 0.009,-2.251757 h 0.61813 v 2.251757 q 0,0.768246 0.26491,1.068481 0.27374,0.300234 0.65345,0.300234 0.28257,0 0.52982,-0.150117 0.24726,-0.150117 0.39737,-0.459182 0.15895,-0.309065 0.15895,-0.785907 v -2.225266 h 0.61813 v 3.408542 q 0,0.158947 0.009,0.317895 0.0177,0.150117 0.0795,0.309065 h -0.60929 q -0.0618,-0.150117 -0.0795,-0.309065 -0.009,-0.158948 -0.009,-0.309065 -0.19427,0.335556 -0.52982,0.529825 -0.32673,0.185439 -0.7241,0.185439 z"
         id="path20" />
      <path
         style="font-family:Inconsolata;-inkscape-font-specification:Inconsolata;fill:#343493;fill-opacity:0.688902"
         d="m 93.413218,44.786725 v -4.035501 h 0.618129 v 0.715264 q 0.229591,-0.370878 0.591638,-0.591638 0.370878,-0.220761 0.777077,-0.220761 0.494504,0 0.83889,0.388539 0.344386,0.379708 0.344386,1.298071 v 2.446026 H 95.965209 V 42.35836 q 0,-0.63579 -0.22076,-0.891872 -0.21193,-0.256082 -0.520995,-0.256082 -0.264913,0 -0.547486,0.158947 -0.273743,0.150117 -0.459182,0.432691 -0.185439,0.273743 -0.185439,0.662281 v 2.3224 z m 10.340852,0.09714 q -0.58281,0 -1.04199,-0.273743 -0.45918,-0.273743 -0.7241,-0.750586 -0.25608,-0.476842 -0.25608,-1.086141 0,-0.609299 0.25608,-1.077311 0.26492,-0.476843 0.71527,-0.750586 0.45918,-0.273743 1.04199,-0.273743 0.4945,0 0.88304,0.2031 0.39737,0.194269 0.64462,0.547486 l -0.39737,0.388538 -0.0618,0.06181 -0.0442,-0.04415 q 0,-0.07064 -0.0353,-0.132456 -0.0265,-0.06181 -0.13245,-0.167778 -0.19427,-0.176609 -0.41503,-0.247252 -0.22076,-0.07064 -0.51217,-0.07064 -0.33555,0 -0.63579,0.185438 -0.2914,0.185439 -0.47684,0.529826 -0.17661,0.335555 -0.17661,0.803568 0,0.450351 0.17661,0.812398 0.18544,0.353217 0.50333,0.565147 0.3179,0.2031 0.7241,0.2031 0.6093,0 1.05082,-0.494504 l 0.37088,0.432691 q -0.59164,0.63579 -1.45702,0.63579 z m 6.58792,-5.969364 h 0.6976 v 0.06181 q -0.053,0.05298 -0.0706,0.114796 -0.009,0.06181 -0.009,0.21193 v 2.163453 q 0.23842,-0.370878 0.59164,-0.591638 0.36204,-0.220761 0.73292,-0.220761 0.54749,0 0.88304,0.388539 0.34439,0.379708 0.34439,1.298071 v 2.446026 h -0.61813 V 42.35836 q 0,-0.63579 -0.22076,-0.891872 -0.21193,-0.256082 -0.52099,-0.256082 -0.26492,0 -0.54749,0.150117 -0.27374,0.150117 -0.45918,0.43269 -0.18544,0.273743 -0.18544,0.671112 v 2.3224 h -0.61813 z"
         id="path21" />
    </g>
  </g>
</svg>
